<?xml version="1.0" encoding="UTF-8"?>
<svg width="191px" height="41px" viewBox="0 0 191 41" version="1.1" xmlns="http://www.w3.org/2000/svg" xmlns:xlink="http://www.w3.org/1999/xlink">
    <!-- Generator: Sketch 47.1 (45422) - http://www.bohemiancoding.com/sketch -->
    <title>Медицинский центр на</title>
    <desc>Created with Sketch.</desc>
    <defs></defs>
    <g id="Symbols" stroke="none" stroke-width="1" fill="none" fill-rule="evenodd">
        <g id="menu" transform="translate(-246.000000, -22.000000)" fill="#212121">
            <path d="M249.706055,22.78125 L253.807617,33.6796875 L257.899414,22.78125 L261.092773,22.78125 L261.092773,37 L258.631836,37 L258.631836,32.3125 L258.875977,26.0429688 L254.676758,37 L252.90918,37 L248.719727,26.0527344 L248.963867,32.3125 L248.963867,37 L246.50293,37 L246.50293,22.78125 L249.706055,22.78125 Z M268.436523,37.1953125 C266.93261,37.1953125 265.713546,36.7216844 264.779297,35.7744141 C263.845047,34.8271437 263.37793,33.5657631 263.37793,31.9902344 L263.37793,31.6972656 C263.37793,30.6425729 263.581378,29.7001995 263.988281,28.8701172 C264.395184,28.0400349 264.966468,27.3938825 265.702148,26.9316406 C266.437829,26.4693987 267.258133,26.2382812 268.163086,26.2382812 C269.601895,26.2382812 270.713538,26.697261 271.498047,27.6152344 C272.282556,28.5332077 272.674805,29.8320229 272.674805,31.5117188 L272.674805,32.46875 L265.770508,32.46875 C265.842123,33.3411502 266.133461,34.0312475 266.644531,34.5390625 C267.155602,35.0468775 267.798499,35.3007812 268.573242,35.3007812 C269.660487,35.3007812 270.545895,34.8613325 271.229492,33.9824219 L272.508789,35.203125 C272.08561,35.8346386 271.520837,36.3245425 270.814453,36.6728516 C270.108069,37.0211606 269.315434,37.1953125 268.436523,37.1953125 Z M268.15332,28.1425781 C267.502275,28.1425781 266.976565,28.3704404 266.576172,28.8261719 C266.175779,29.2819033 265.920248,29.9166626 265.80957,30.7304688 L270.331055,30.7304688 L270.331055,30.5546875 C270.278971,29.7604127 270.067385,29.1598328 269.696289,28.7529297 C269.325193,28.3460266 268.810876,28.1425781 268.15332,28.1425781 Z M274.55957,35.1054688 C275.217126,34.369788 275.658202,33.6715528 275.882812,33.0107422 C276.107423,32.3499316 276.242513,31.5052135 276.288086,30.4765625 L276.424805,26.4335938 L283.758789,26.4335938 L283.758789,35.1054688 L285.223633,35.1054688 L285.223633,40.1445312 L282.860352,40.1445312 L282.860352,37 L276.083008,37 L276.083008,40.1445312 L273.680664,40.1445312 L273.69043,35.1054688 L274.55957,35.1054688 Z M277.342773,35.1054688 L281.395508,35.1054688 L281.395508,28.4746094 L278.729492,28.4746094 L278.661133,30.4960938 C278.569987,32.4362076 278.130538,33.9726506 277.342773,35.1054688 Z M293.338867,26.4335938 L295.702148,26.4335938 L295.702148,37 L293.338867,37 L293.338867,29.9492188 L289.198242,37 L286.834961,37 L286.834961,26.4335938 L289.198242,26.4335938 L289.198242,33.484375 L293.338867,26.4335938 Z M298.319336,26.4335938 L300.692383,26.4335938 L300.692383,35.1054688 L304.813477,35.1054688 L304.813477,26.4335938 L307.186523,26.4335938 L307.186523,35.1054688 L308.62207,35.1054688 L308.426758,40.1347656 L306.268555,40.1347656 L306.268555,37 L298.319336,37 L298.319336,26.4335938 Z M316.883789,26.4335938 L319.24707,26.4335938 L319.24707,37 L316.883789,37 L316.883789,29.9492188 L312.743164,37 L310.379883,37 L310.379883,26.4335938 L312.743164,26.4335938 L312.743164,33.484375 L316.883789,26.4335938 Z M330.72168,37 L328.348633,37 L328.348633,32.7324219 L324.237305,32.7324219 L324.237305,37 L321.864258,37 L321.864258,26.4335938 L324.237305,26.4335938 L324.237305,30.8378906 L328.348633,30.8378906 L328.348633,26.4335938 L330.72168,26.4335938 L330.72168,37 Z M337.586914,35.3007812 C338.179365,35.3007812 338.670896,35.1282569 339.061523,34.7832031 C339.45215,34.4381493 339.660482,34.0117213 339.686523,33.5039062 L341.922852,33.5039062 C341.89681,34.1614616 341.691734,34.7750623 341.307617,35.3447266 C340.923501,35.9143909 340.402673,36.3652327 339.745117,36.6972656 C339.087562,37.0292985 338.377933,37.1953125 337.616211,37.1953125 C336.138339,37.1953125 334.966476,36.7168017 334.100586,35.7597656 C333.234696,34.8027296 332.801758,33.4811282 332.801758,31.7949219 L332.801758,31.5507812 C332.801758,29.9427003 333.231441,28.6552783 334.09082,27.6884766 C334.9502,26.7216749 336.122063,26.2382812 337.606445,26.2382812 C338.862962,26.2382812 339.886715,26.6044885 340.677734,27.3369141 C341.468754,28.0693396 341.883789,29.031244 341.922852,30.2226562 L339.686523,30.2226562 C339.660482,29.6171845 339.453778,29.1191426 339.066406,28.7285156 C338.679035,28.3378887 338.185875,28.1425781 337.586914,28.1425781 C336.818681,28.1425781 336.226239,28.4208957 335.80957,28.9775391 C335.392902,29.5341825 335.181315,30.3789006 335.174805,31.5117188 L335.174805,31.8925781 C335.174805,33.0384172 335.381508,33.8929008 335.794922,34.4560547 C336.208335,35.0192085 336.80566,35.3007812 337.586914,35.3007812 Z M347.469727,32.8203125 L346.268555,32.8203125 L346.268555,37 L343.895508,37 L343.895508,26.4335938 L346.268555,26.4335938 L346.268555,30.6523438 L347.313477,30.6523438 L350.233398,26.4335938 L353.163086,26.4335938 L349.344727,31.4921875 L353.485352,37 L350.399414,37 L347.469727,32.8203125 Z M361.385742,26.4335938 L363.749023,26.4335938 L363.749023,37 L361.385742,37 L361.385742,29.9492188 L357.245117,37 L354.881836,37 L354.881836,26.4335938 L357.245117,26.4335938 L357.245117,33.484375 L361.385742,26.4335938 Z M372.870117,26.4335938 L375.233398,26.4335938 L375.233398,37 L372.870117,37 L372.870117,29.9492188 L368.729492,37 L366.366211,37 L366.366211,26.4335938 L368.729492,26.4335938 L368.729492,33.484375 L372.870117,26.4335938 Z M373.983398,22.3808594 C373.983398,23.201176 373.696943,23.8652318 373.124023,24.3730469 C372.551104,24.8808619 371.786138,25.1347656 370.829102,25.1347656 C369.872066,25.1347656 369.107099,24.8808619 368.53418,24.3730469 C367.96126,23.8652318 367.674805,23.201176 367.674805,22.3808594 L369.452148,22.3808594 C369.452148,22.810549 369.574218,23.1442045 369.818359,23.3818359 C370.062501,23.6194673 370.399412,23.7382812 370.829102,23.7382812 C371.258791,23.7382812 371.594074,23.6194673 371.834961,23.3818359 C372.075848,23.1442045 372.196289,22.810549 372.196289,22.3808594 L373.983398,22.3808594 Z M382.831055,26.4335938 L385.204102,26.4335938 L385.204102,35.1054688 L389.325195,35.1054688 L389.325195,26.4335938 L391.698242,26.4335938 L391.698242,35.1054688 L393.133789,35.1054688 L392.938477,40.1347656 L390.780273,40.1347656 L390.780273,37 L382.831055,37 L382.831055,26.4335938 Z M399.452148,37.1953125 C397.948235,37.1953125 396.729171,36.7216844 395.794922,35.7744141 C394.860672,34.8271437 394.393555,33.5657631 394.393555,31.9902344 L394.393555,31.6972656 C394.393555,30.6425729 394.597003,29.7001995 395.003906,28.8701172 C395.410809,28.0400349 395.982093,27.3938825 396.717773,26.9316406 C397.453454,26.4693987 398.273758,26.2382812 399.178711,26.2382812 C400.61752,26.2382812 401.729163,26.697261 402.513672,27.6152344 C403.298181,28.5332077 403.69043,29.8320229 403.69043,31.5117188 L403.69043,32.46875 L396.786133,32.46875 C396.857748,33.3411502 397.149086,34.0312475 397.660156,34.5390625 C398.171227,35.0468775 398.814124,35.3007812 399.588867,35.3007812 C400.676112,35.3007812 401.56152,34.8613325 402.245117,33.9824219 L403.524414,35.203125 C403.101235,35.8346386 402.536462,36.3245425 401.830078,36.6728516 C401.123694,37.0211606 400.331059,37.1953125 399.452148,37.1953125 Z M399.168945,28.1425781 C398.5179,28.1425781 397.99219,28.3704404 397.591797,28.8261719 C397.191404,29.2819033 396.935873,29.9166626 396.825195,30.7304688 L401.34668,30.7304688 L401.34668,30.5546875 C401.294596,29.7604127 401.08301,29.1598328 400.711914,28.7529297 C400.340818,28.3460266 399.826501,28.1425781 399.168945,28.1425781 Z M414.481445,37 L412.108398,37 L412.108398,32.7324219 L407.99707,32.7324219 L407.99707,37 L405.624023,37 L405.624023,26.4335938 L407.99707,26.4335938 L407.99707,30.8378906 L412.108398,30.8378906 L412.108398,26.4335938 L414.481445,26.4335938 L414.481445,37 Z M425.321289,28.3183594 L421.893555,28.3183594 L421.893555,37 L419.520508,37 L419.520508,28.3183594 L416.131836,28.3183594 L416.131836,26.4335938 L425.321289,26.4335938 L425.321289,28.3183594 Z M436.151367,31.8242188 C436.151367,33.4583415 435.780277,34.7620394 435.038086,35.7353516 C434.295895,36.7086637 433.299811,37.1953125 432.049805,37.1953125 C430.890945,37.1953125 429.96322,36.8144569 429.266602,36.0527344 L429.266602,41.0625 L426.893555,41.0625 L426.893555,26.4335938 L429.081055,26.4335938 L429.178711,27.5078125 C429.875329,26.6614541 430.822585,26.2382812 432.020508,26.2382812 C433.309577,26.2382812 434.320309,26.7184197 435.052734,27.6787109 C435.78516,28.6390022 436.151367,29.9719967 436.151367,31.6777344 L436.151367,31.8242188 Z M433.788086,31.6191406 C433.788086,30.5644479 433.578127,29.7278677 433.158203,29.109375 C432.738279,28.4908823 432.137699,28.1816406 431.356445,28.1816406 C430.386388,28.1816406 429.689781,28.5820272 429.266602,29.3828125 L429.266602,34.0703125 C429.696291,34.8906291 430.399409,35.3007812 431.375977,35.3007812 C432.131189,35.3007812 432.722003,34.9964223 433.148438,34.3876953 C433.574872,33.7789683 433.788086,32.856126 433.788086,31.6191406 Z M292.225098,59 L291.17041,59 L291.17041,54.640625 L286.046387,54.640625 L286.046387,59 L284.991699,59 L284.991699,49.4902344 L286.046387,49.4902344 L286.046387,53.7529297 L291.17041,53.7529297 L291.17041,49.4902344 L292.225098,49.4902344 L292.225098,59 Z M301.040527,59 C300.935058,58.7011704 300.867676,58.258792 300.838379,57.6728516 C300.469236,58.1533227 299.999026,58.5239245 299.427734,58.784668 C298.856442,59.0454115 298.251468,59.1757812 297.612793,59.1757812 C296.698726,59.1757812 295.958987,58.920901 295.393555,58.4111328 C294.828122,57.9013646 294.54541,57.2568398 294.54541,56.4775391 C294.54541,55.5517532 294.93066,54.8193386 295.701172,54.2802734 C296.471684,53.7412082 297.545403,53.4716797 298.922363,53.4716797 L300.82959,53.4716797 L300.82959,52.390625 C300.82959,51.7109341 300.620119,51.1762715 300.201172,50.7866211 C299.782224,50.3969707 299.171391,50.2021484 298.368652,50.2021484 C297.636227,50.2021484 297.029788,50.3896466 296.549316,50.7646484 C296.068845,51.1396503 295.828613,51.5908177 295.828613,52.1181641 L294.773926,52.109375 C294.773926,51.3535118 295.125485,50.6987332 295.828613,50.1450195 C296.531742,49.5913058 297.395991,49.3144531 298.421387,49.3144531 C299.481939,49.3144531 300.318356,49.5795872 300.930664,50.1098633 C301.542972,50.6401394 301.85791,51.3798781 301.875488,52.3291016 L301.875488,56.8291016 C301.875488,57.749028 301.972167,58.4374977 302.165527,58.8945312 L302.165527,59 L301.040527,59 Z M297.73584,58.2441406 C298.438968,58.2441406 299.06738,58.0742204 299.621094,57.734375 C300.174807,57.3945296 300.577635,56.9404325 300.82959,56.3720703 L300.82959,54.2802734 L298.94873,54.2802734 C297.899897,54.2919922 297.079593,54.4838849 296.487793,54.855957 C295.895993,55.2280292 295.600098,55.7392546 295.600098,56.3896484 C295.600098,56.9228542 295.79785,57.3652326 296.193359,57.7167969 C296.588869,58.0683611 297.103024,58.2441406 297.73584,58.2441406 Z M318.750488,59 L317.669434,59 L317.669434,47.1259766 L310.427246,47.1259766 L310.427246,59 L309.346191,59 L309.346191,46.203125 L318.750488,46.203125 L318.750488,59 Z M325.474121,59.1757812 C324.665523,59.1757812 323.934574,58.9765645 323.28125,58.578125 C322.627926,58.1796855 322.119631,57.6245153 321.756348,56.9125977 C321.393065,56.20068 321.211426,55.4023482 321.211426,54.5175781 L321.211426,54.1396484 C321.211426,53.2255814 321.38867,52.4023474 321.743164,51.6699219 C322.097658,50.9374963 322.591305,50.3618185 323.224121,49.9428711 C323.856937,49.5239237 324.542477,49.3144531 325.280762,49.3144531 C326.435064,49.3144531 327.350583,49.7084922 328.027344,50.496582 C328.704105,51.2846719 329.04248,52.3613213 329.04248,53.7265625 L329.04248,54.3154297 L322.257324,54.3154297 L322.257324,54.5175781 C322.257324,55.5957085 322.566403,56.4936488 323.18457,57.2114258 C323.802737,57.9292028 324.580562,58.2880859 325.518066,58.2880859 C326.080569,58.2880859 326.577146,58.1855479 327.007812,57.9804688 C327.438479,57.7753896 327.829588,57.4472679 328.181152,56.9960938 L328.840332,57.4970703 C328.066891,58.6162165 326.944832,59.1757812 325.474121,59.1757812 Z M325.280762,50.2109375 C324.489742,50.2109375 323.823245,50.5009737 323.28125,51.0810547 C322.739255,51.6611357 322.409669,52.4404248 322.29248,53.4189453 L327.996582,53.4189453 L327.996582,53.3046875 C327.967285,52.3906204 327.706545,51.6464872 327.214355,51.0722656 C326.722166,50.498044 326.077641,50.2109375 325.280762,50.2109375 Z M338.736816,54.3417969 C338.736816,55.8242262 338.408695,57.0004839 337.752441,57.8706055 C337.096188,58.740727 336.217291,59.1757812 335.115723,59.1757812 C333.814935,59.1757812 332.818851,58.7187546 332.127441,57.8046875 L332.127441,62.65625 L331.081543,62.65625 L331.081543,49.4902344 L332.057129,49.4902344 L332.109863,50.8349609 C332.795414,49.821284 333.788568,49.3144531 335.089355,49.3144531 C336.22608,49.3144531 337.118161,49.7451129 337.765625,50.6064453 C338.413089,51.4677777 338.736816,52.6630783 338.736816,54.1923828 L338.736816,54.3417969 Z M337.682129,54.1572266 C337.682129,52.9443299 337.433108,51.9863316 336.935059,51.2832031 C336.437009,50.5800746 335.74268,50.2285156 334.852051,50.2285156 C334.207516,50.2285156 333.653811,50.3837875 333.190918,50.6943359 C332.728025,51.0048844 332.373536,51.4560517 332.127441,52.0478516 L332.127441,56.609375 C332.379396,57.1542996 332.739744,57.5703111 333.208496,57.8574219 C333.677248,58.1445327 334.230954,58.2880859 334.869629,58.2880859 C335.754399,58.2880859 336.444333,57.9350621 336.939453,57.2290039 C337.434573,56.5229457 337.682129,55.4990301 337.682129,54.1572266 Z M340.48584,54.1044922 C340.48584,53.1904251 340.663084,52.3671912 341.017578,51.6347656 C341.372072,50.9023401 341.873044,50.3325216 342.520508,49.925293 C343.167972,49.5180644 343.901851,49.3144531 344.722168,49.3144531 C345.987799,49.3144531 347.01318,49.7582963 347.79834,50.6459961 C348.5835,51.5336958 348.976074,52.7099536 348.976074,54.1748047 L348.976074,54.3945312 C348.976074,55.3144577 348.79883,56.1420862 348.444336,56.8774414 C348.089842,57.6127966 347.590335,58.1796855 346.945801,58.578125 C346.301266,58.9765645 345.565922,59.1757812 344.739746,59.1757812 C343.479974,59.1757812 342.456059,58.731938 341.667969,57.8442383 C340.879879,56.9565385 340.48584,55.7802808 340.48584,54.3154297 L340.48584,54.1044922 Z M341.540527,54.3945312 C341.540527,55.5312557 341.834958,56.4643518 342.423828,57.1938477 C343.012698,57.9233435 343.784663,58.2880859 344.739746,58.2880859 C345.68897,58.2880859 346.458005,57.9233435 347.046875,57.1938477 C347.635745,56.4643518 347.930176,55.5019591 347.930176,54.3066406 L347.930176,54.1044922 C347.930176,53.3779261 347.795412,52.7128936 347.525879,52.109375 C347.256346,51.5058564 346.87842,51.0385759 346.39209,50.7075195 C345.905759,50.3764632 345.349124,50.2109375 344.722168,50.2109375 C343.784663,50.2109375 343.020022,50.5786096 342.428223,51.3139648 C341.836423,52.0493201 341.540527,53.0117128 341.540527,54.2011719 L341.540527,54.3945312 Z M351.26123,59 L351.26123,49.4902344 L354.750488,49.4902344 C355.957526,49.4902344 356.883298,49.7055643 357.527832,50.1362305 C358.172367,50.5668967 358.494629,51.198238 358.494629,52.0302734 C358.494629,52.5048852 358.351076,52.9282208 358.063965,53.300293 C357.776854,53.6723651 357.357913,53.9433585 356.807129,54.1132812 C357.428226,54.2304693 357.927732,54.4970682 358.305664,54.9130859 C358.683596,55.3291036 358.872559,55.8124972 358.872559,56.3632812 C358.872559,57.2011761 358.56348,57.8500954 357.945312,58.3100586 C357.327145,58.7700218 356.452642,59 355.321777,59 L351.26123,59 Z M352.307129,54.6230469 L352.307129,58.1210938 L355.356934,58.1210938 C356.147953,58.1210938 356.757322,57.9687515 357.185059,57.6640625 C357.612795,57.3593735 357.82666,56.9199247 357.82666,56.3457031 C357.82666,55.8183567 357.612795,55.3994156 357.185059,55.0888672 C356.757322,54.7783188 356.147953,54.6230469 355.356934,54.6230469 L352.307129,54.6230469 Z M352.307129,53.7441406 L354.970215,53.7441406 C356.622567,53.720703 357.44873,53.1582086 357.44873,52.0566406 C357.44873,51.4765596 357.221682,51.053224 356.767578,50.7866211 C356.313474,50.5200182 355.641118,50.3867188 354.750488,50.3867188 L352.307129,50.3867188 L352.307129,53.7441406 Z M364.726074,58.2880859 C365.4585,58.2880859 366.072263,58.081545 366.567383,57.668457 C367.062502,57.255369 367.330566,56.7207064 367.371582,56.0644531 L368.382324,56.0644531 C368.353027,56.6445342 368.171388,57.1733375 367.837402,57.6508789 C367.503416,58.1284204 367.059573,58.5019518 366.505859,58.7714844 C365.952146,59.041017 365.35889,59.1757812 364.726074,59.1757812 C363.478021,59.1757812 362.489261,58.7421918 361.759766,57.875 C361.03027,57.0078082 360.665527,55.8418042 360.665527,54.3769531 L360.665527,54.0605469 C360.665527,53.1230422 360.829588,52.2939489 361.157715,51.5732422 C361.485841,50.8525355 361.956052,50.2959004 362.568359,49.9033203 C363.180667,49.5107402 363.896969,49.3144531 364.717285,49.3144531 C365.760259,49.3144531 366.620114,49.6249969 367.296875,50.2460938 C367.973636,50.8671906 368.335449,51.6845652 368.382324,52.6982422 L367.371582,52.6982422 C367.324707,51.9540978 367.056643,51.3535179 366.567383,50.8964844 C366.078123,50.4394508 365.46143,50.2109375 364.717285,50.2109375 C363.768062,50.2109375 363.031253,50.5537075 362.506836,51.2392578 C361.982419,51.9248081 361.720215,52.885736 361.720215,54.1220703 L361.720215,54.4296875 C361.720215,55.6425842 361.982419,56.5888638 362.506836,57.2685547 C363.031253,57.9482456 363.770991,58.2880859 364.726074,58.2880859 Z M373.066895,54.640625 L371.60791,54.640625 L371.60791,59 L370.544434,59 L370.544434,49.4902344 L371.60791,49.4902344 L371.60791,53.7089844 L373.049316,53.7089844 L376.538574,49.4902344 L377.865723,49.4902344 L373.963379,54.1044922 L378.296387,59 L376.907715,59 L373.066895,54.640625 Z M379.043457,54.1044922 C379.043457,53.1904251 379.220701,52.3671912 379.575195,51.6347656 C379.929689,50.9023401 380.430661,50.3325216 381.078125,49.925293 C381.725589,49.5180644 382.459469,49.3144531 383.279785,49.3144531 C384.545416,49.3144531 385.570797,49.7582963 386.355957,50.6459961 C387.141117,51.5336958 387.533691,52.7099536 387.533691,54.1748047 L387.533691,54.3945312 C387.533691,55.3144577 387.356447,56.1420862 387.001953,56.8774414 C386.647459,57.6127966 386.147952,58.1796855 385.503418,58.578125 C384.858883,58.9765645 384.123539,59.1757812 383.297363,59.1757812 C382.037591,59.1757812 381.013676,58.731938 380.225586,57.8442383 C379.437496,56.9565385 379.043457,55.7802808 379.043457,54.3154297 L379.043457,54.1044922 Z M380.098145,54.3945312 C380.098145,55.5312557 380.392575,56.4643518 380.981445,57.1938477 C381.570315,57.9233435 382.34228,58.2880859 383.297363,58.2880859 C384.246587,58.2880859 385.015622,57.9233435 385.604492,57.1938477 C386.193362,56.4643518 386.487793,55.5019591 386.487793,54.3066406 L386.487793,54.1044922 C386.487793,53.3779261 386.353029,52.7128936 386.083496,52.109375 C385.813963,51.5058564 385.436038,51.0385759 384.949707,50.7075195 C384.463376,50.3764632 383.906741,50.2109375 383.279785,50.2109375 C382.34228,50.2109375 381.57764,50.5786096 380.98584,51.3139648 C380.39404,52.0493201 380.098145,53.0117128 380.098145,54.2011719 L380.098145,54.3945312 Z M395.953613,49.4902344 L397.008301,49.4902344 L397.008301,59 L395.953613,59 L395.953613,51.1865234 L390.820801,59 L389.774902,59 L389.774902,49.4902344 L390.820801,49.4902344 L390.820801,57.3125 L395.953613,49.4902344 Z M395.900879,46.0625 C395.900879,46.7363315 395.670901,47.2812479 395.210938,47.6972656 C394.750974,48.1132833 394.134281,48.3212891 393.36084,48.3212891 C392.599117,48.3212891 391.985354,48.1147482 391.519531,47.7016602 C391.053709,47.2885722 390.820801,46.7421909 390.820801,46.0625 L391.717285,46.0625 C391.717285,46.5488306 391.862303,46.9208971 392.152344,47.1787109 C392.442384,47.4365247 392.845212,47.5654297 393.36084,47.5654297 C393.876467,47.5654297 394.279295,47.4306654 394.569336,47.1611328 C394.859376,46.8916002 395.004395,46.5253929 395.004395,46.0625 L395.900879,46.0625 Z" id="Медицинский-центр-на"></path>
        </g>
    </g>
</svg>